<?xml version="1.0" standalone="no"?>
<!DOCTYPE svg PUBLIC "-//W3C//DTD SVG 20010904//EN"
 "http://www.w3.org/TR/2001/REC-SVG-20010904/DTD/svg10.dtd">
<svg version="1.0" xmlns="http://www.w3.org/2000/svg"
 width="16.000000pt" height="16.000000pt" viewBox="0 0 16.000000 16.000000"
 preserveAspectRatio="xMidYMid meet">
<metadata>
Created by potrace 1.11, written by Peter Selinger 2001-2013
</metadata>
<g transform="translate(0.000000,16.000000) scale(0.003810,-0.003810)"
fill="#000000" stroke="none">
<path d="M350 2445 l0 -705 350 0 350 0 0 -350 0 -350 1055 0 1055 0 0 350 0
350 350 0 350 0 0 705 0 705 -355 0 -355 0 0 -350 0 -350 -350 0 -350 0 0
-350 0 -350 -345 0 -345 0 0 350 0 350 -350 0 -350 0 0 350 0 350 -355 0 -355
0 0 -705z"/>
</g>
</svg>
